:FULLY-SPECIFIED
:FORCE-ALL-JOINTS-BE-3DOF
:DEGREES
421
root 10.0707 16.9147 23.0609 7.30825 -1.7098 -6.36404
lfemur -39.9336 1.81985 -15.1153
ltibia 23.2562 0 0
lfoot -8.00981 9.0139 0
ltoes -12.0341 0 0
rfemur 15.7966 3.73166 30.2518
rtibia 11.5397 0 0
rfoot -4.15028 4.42179 0
rtoes -16.6876 0 0
lowerback -8.45075 2.92068 2.81676
upperback -0.859445 3.44251 3.24822
thorax 3.84368 1.74017 2.2426
lowerneck -19.5155 -5.85096 -13.1032
upperneck 22.075 -7.47774 12.7033
head 11.4349 -3.01409 5.72398
lclavicle -1.01563e-14 -2.093e-14 0
lhumerus -49.6337 -8.58486 94.5794
lradius 24.8754 0 0
lwrist 3.30315 0 0
lhand -6.69854 -21.2788 0
lfingers 7.12502 0 0
lthumb 19.1609 7.79987 0
rclavicle -1.01563e-14 -2.093e-14 0
rhumerus -32.9947 12.9843 -87.3296
rradius 36.7404 0 0
rwrist -15.0648 0 0
rhand -29.4271 -25.7598 0
rfingers 7.12502 0 0
rthumb -2.76414 -55.7214 0
422
root 10.0938 16.9324 23.2053 7.25195 -1.68088 -6.12451
lfemur -39.4654 1.87723 -15.5169
ltibia 23.3293 0 0
lfoot -8.11628 8.87409 0
ltoes -11.7124 0 0
rfemur 14.9227 3.45726 29.8957
rtibia 13.3218 0 0
rfoot -4.1397 4.03919 0
rtoes -16.8606 0 0
lowerback -8.36737 2.82509 2.66483
upperback -0.887018 3.33083 3.19244
thorax 3.7687 1.68408 2.25708
lowerneck -19.5535 -5.80077 -13.0748
upperneck 22.1412 -7.39748 12.6366
head 11.4514 -2.98256 5.70916
lclavicle -1.15409e-14 -2.01852e-14 0
lhumerus -48.9604 -8.59231 94.4369
lradius 24.6619 0 0
lwrist 2.96868 0 0
lhand -6.79183 -21.3288 0
lfingers 7.12502 0 0
lthumb 19.0711 7.75818 0
rclavicle -1.15409e-14 -2.01852e-14 0
rhumerus -33.3512 12.9061 -87.3839
rradius 36.6286 0 0
rwrist -14.9322 0 0
rhand -29.4585 -25.9928 0
rfingers 7.12502 0 0
rthumb -2.7945 -55.954 0
423
root 10.1169 16.9501 23.3496 7.19274 -1.64607 -5.87339
lfemur -38.9746 1.93954 -15.9355
ltibia 23.4314 0 0
lfoot -8.23172 8.73089 0
ltoes -11.3705 0 0
rfemur 13.9935 3.17459 29.5251
rtibia 15.1836 0 0
rfoot -4.14029 3.64078 0
rtoes -17.0406 0 0
lowerback -8.27879 2.72367 2.50511
upperback -0.915601 3.21223 3.13415
thorax 3.6898 1.62451 2.27248
lowerneck -19.5935 -5.749 -13.0449
upperneck 22.2096 -7.31469 12.5674
head 11.4686 -2.95002 5.69362
lclavicle -1.29739e-14 -1.94279e-14 0
lhumerus -48.2593 -8.60772 94.2914
lradius 24.4434 0 0
lwrist 2.62859 0 0
lhand -6.89422 -21.3812 0
lfingers 7.12502 0 0
lthumb 18.9726 7.71478 0
rclavicle -1.29739e-14 -1.94279e-14 0
rhumerus -33.7221 12.8284 -87.438
rradius 36.5178 0 0
rwrist -14.8002 0 0
rhand -29.4922 -26.2333 0
rfingers 7.12502 0 0
rthumb -2.82703 -56.194 0
424
root 10.1401 16.9677 23.4939 7.13089 -1.60563 -5.61163
lfemur -38.462 2.00632 -16.3695
ltibia 23.5595 0 0
lfoot -8.35552 8.58471 0
ltoes -11.0099 0 0
rfemur 13.013 2.88503 29.1411
rtibia 17.1165 0 0
rfoot -4.15198 3.22803 0
rtoes -17.2263 0 0
lowerback -8.18545 2.61678 2.33818
upperback -0.945047 3.08716 3.07357
thorax 3.60739 1.56167 2.28877
lowerneck -19.6353 -5.69576 -13.0136
upperneck 22.28 -7.2296 12.496
head 11.4864 -2.91653 5.67743
lclavicle -1.44483e-14 -1.86592e-14 0
lhumerus -47.5325 -8.63096 94.1433
lradius 24.2211 0 0
lwrist 2.28401 0 0
lhand -7.00512 -21.4358 0
lfingers 7.12502 0 0
lthumb 18.8659 7.66976 0
rclavicle -1.44483e-14 -1.86592e-14 0
rhumerus -34.1061 12.7512 -87.4918
rradius 36.4081 0 0
rwrist -14.669 0 0
rhand -29.5279 -26.4803 0
rfingers 7.12502 0 0
rthumb -2.86148 -56.4405 0
425
root 10.1632 16.9854 23.6383 7.06661 -1.55986 -5.3402
lfemur -37.9287 2.07711 -16.8172
ltibia 23.711 0 0
lfoot -8.48707 8.43591 0
ltoes -10.6325 0 0
rfemur 11.9852 2.58999 28.7448
rtibia 19.1119 0 0
rfoot -4.17471 2.80246 0
rtoes -17.4163 0 0
lowerback -8.08782 2.5048 2.16467
upperback -0.975208 2.95603 3.01093
thorax 3.5219 1.49577 2.30587
lowerneck -19.6788 -5.64117 -12.9809
upperneck 22.3522 -7.14243 12.4227
head 11.5048 -2.88217 5.66066
lclavicle -1.59569e-14 -1.78802e-14 0
lhumerus -46.7825 -8.66189 93.9928
lradius 23.996 0 0
lwrist 1.93607 0 0
lhand -7.12392 -21.4927 0
lfingers 7.12502 0 0
lthumb 18.7516 7.62319 0
rclavicle -1.59569e-14 -1.78802e-14 0
rhumerus -34.502 12.6745 -87.5451
rradius 36.2997 0 0
rwrist -14.539 0 0
rhand -29.5653 -26.7326 0
rfingers 7.12502 0 0
rthumb -2.89765 -56.6923 0
426
root 10.1864 17.0031 23.7826 7.00017 -1.50905 -5.06006
lfemur -37.3757 2.15143 -17.2772
ltibia 23.883 0 0
lfoot -8.62575 8.2849 0
ltoes -10.2397 0 0
rfemur 10.9141 2.29087 28.3372
rtibia 21.161 0 0
rfoot -4.2084 2.36557 0
rtoes -17.6094 0 0
lowerback -7.98635 2.3881 1.98518
upperback -1.00594 2.81927 2.94645
thorax 3.43376 1.42703 2.32373
lowerneck -19.7238 -5.58535 -12.947
upperneck 22.426 -7.05337 12.3476
head 11.5237 -2.84702 5.64338
lclavicle -1.74927e-14 -1.70922e-14 0
lhumerus -46.0114 -8.70037 93.8401
lradius 23.769 0 0
lwrist 1.58592 0 0
lhand -7.25002 -21.5516 0
lfingers 7.12502 0 0
lthumb 18.6302 7.57516 0
rclavicle -1.74927e-14 -1.70922e-14 0
rhumerus -34.9086 12.5982 -87.5978
rradius 36.1927 0 0
rwrist -14.4105 0 0
rhand -29.6043 -26.9893 0
rfingers 7.12502 0 0
rthumb -2.93531 -56.9484 0
427
root 10.2095 17.0207 23.9269 6.9318 -1.45347 -4.77216
lfemur -36.8039 2.22882 -17.7478
ltibia 24.0727 0 0
lfoot -8.77094 8.13206 0
ltoes -9.83321 0 0
rfemur 9.80356 1.98906 27.9193
rtibia 23.2553 0 0
rfoot -4.25299 1.91886 0
rtoes -17.8043 0 0
lowerback -7.8815 2.26705 1.80032
upperback -1.03708 2.67731 2.88036
thorax 3.34339 1.35565 2.34231
lowerneck -19.7703 -5.5284 -12.9119
upperneck 22.5011 -6.96266 12.2711
head 11.543 -2.81116 5.62567
lclavicle -1.90486e-14 -1.62963e-14 0
lhumerus -45.2216 -8.74625 93.6855
lradius 23.5414 0 0
lwrist 1.23468 0 0
lhand -7.38282 -21.6124 0
lfingers 7.12502 0 0
lthumb 18.5024 7.52575 0
rclavicle -1.90486e-14 -1.62963e-14 0
rhumerus -35.3246 12.5223 -87.6497
rradius 36.0873 0 0
rwrist -14.2839 0 0
rhand -29.6446 -27.2492 0
rfingers 7.12502 0 0
rthumb -2.97423 -57.2078 0
428
root 10.2327 17.0384 24.0713 6.86175 -1.39343 -4.47745
lfemur -36.2143 2.30883 -18.2274
ltibia 24.2774 0 0
lfoot -8.92203 7.97777 0
ltoes -9.41471 0 0
rfemur 8.65762 1.68595 27.4923
rtibia 25.3862 0 0
rfoot -4.30843 1.46382 0
rtoes -17.9996 0 0
lowerback -7.77372 2.14202 1.6107
upperback -1.0685 2.53058 2.81289
thorax 3.25123 1.28186 2.36154
lowerneck -19.818 -5.47043 -12.8757
upperneck 22.5775 -6.8705 12.1934
head 11.5627 -2.77464 5.6076
lclavicle -2.06175e-14 -1.54936e-14 0
lhumerus -44.4153 -8.7994 93.5292
lradius 23.314 0 0
lwrist 0.883483 0 0
lhand -7.52172 -21.675 0
lfingers 7.12502 0 0
lthumb 18.3688 7.47504 0
rclavicle -2.06175e-14 -1.54936e-14 0
rhumerus -35.7488 12.4467 -87.7008
rradius 35.9835 0 0
rwrist -14.1593 0 0
rhand -29.686 -27.5115 0
rfingers 7.12502 0 0
rthumb -3.01421 -57.4694 0
429
root 10.2558 17.056 24.2156 6.79025 -1.3292 -4.17691
lfemur -35.6078 2.39097 -18.7145
ltibia 24.4942 0 0
lfoot -9.0784 7.82243 0
ltoes -8.98581 0 0
rfemur 7.48024 1.38295 27.0571
rtibia 27.5451 0 0
rfoot -4.37463 1.00197 0
rtoes -18.1939 0 0
lowerback -7.66348 2.01339 1.41693
upperback -1.10005 2.3795 2.74425
thorax 3.15769 1.20585 2.38136
lowerneck -19.8669 -5.41157 -12.8384
upperneck 22.6549 -6.77711 12.1148
head 11.5828 -2.73756 5.58923
lclavicle -2.21924e-14 -1.46853e-14 0
lhumerus -43.5948 -8.85968 93.3714
lradius 23.088 0 0
lwrist 0.533472 0 0
lhand -7.66611 -21.7392 0
lfingers 7.12502 0 0
lthumb 18.2298 7.4231 0
rclavicle -2.21924e-14 -1.46853e-14 0
rhumerus -36.1801 12.3715 -87.7508
rradius 35.8815 0 0
rwrist -14.0373 0 0
rhand -29.7283 -27.7749 0
rfingers 7.12502 0 0
rthumb -3.055 -57.7322 0
